PathFileType	4	(X/Y/Z)	./resultDataOpenSim/trcMotMarkerGrf/sub09/qtm-13-02.trc
DataRate	CameraRate	NumFrames	NumMarkers	Units	OrigDataRate	OrigDataStartFrame	OrigNumFrames
250.000000	250.000000	12	24	m	250.000000	327	523
Frame#	Time	L.Toe.Tip			R.Toe.Tip			L.Ankle.Lat			R.Ankle.Lat			L.Ankle.Med			R.Ankle.Med			L.Heel			R.Heel			L.Knee.Lat			R.Knee.Lat			L.Knee.Med			R.Knee.Med			L.Thigh.Upper			R.Thigh.Upper			L.ASIS			R.ASIS			V.Sacral			L.Acromium			R.Acromium			C7			L.Elbow			R.Elbow			L.Wrist.Lat			R.Wrist.Lat
		X1	Y1	Z1	X2	Y2	Z2	X3	Y3	Z3	X4	Y4	Z4	X5	Y5	Z5	X6	Y6	Z6	X7	Y7	Z7	X8	Y8	Z8	X9	Y9	Z9	X10	Y10	Z10	X11	Y11	Z11	X12	Y12	Z12	X13	Y13	Z13	X14	Y14	Z14	X15	Y15	Z15	X16	Y16	Z16	X17	Y17	Z17	X18	Y18	Z18	X19	Y19	Z19	X20	Y20	Z20	X21	Y21	Z21	X22	Y22	Z22	X23	Y23	Z23	X24	Y24	Z24

327	1.304	0.17604526	-0.0063348099	-0.011071523	1.0584668	0.042169531	0.026326444	0.099283452	0.12043621	-0.09096329	0.91008915	0.05163998	0.064741695	0.13338118	0.12123503	0.002140769	0.91679806	0.09439858	-0.025979156	0.03139558	0.1430443	-0.041673772	0.84233927	0.030673444	0.016086688	0.39610754	0.42557576	-0.13248698	0.85419569	0.50471092	0.13573606	0.40870979	0.41250781	-0.0089720738	0.83015196	0.48483075	0.013764224	0.54654132	0.80790185	-0.15192248	0.62334299	0.82671282	0.21306343	0.66417009	0.87702208	-0.11200048	0.68359675	0.90489227	0.12729939	0.51176339	0.9533372	0.022203131	0.68303444	1.3462612	-0.14662509	0.6326014	1.3576701	0.18164782	0.5956067	1.4014921	0.010202286	0.53287525	1.0088595	-0.23510346	0.45319598	1.0500451	0.25872106	0.72436198	0.81786493	-0.21539879	0.52352158	0.79473482	0.32166801
328	1.308	0.17744578	-0.0052601665	-0.01182996	1.0590543	0.041795389	0.026197316	0.10399512	0.12383873	-0.092342918	0.91047929	0.051796268	0.064694743	0.13872835	0.12379932	0.00052179983	0.91699709	0.094241842	-0.026112735	0.037209621	0.14815526	-0.042697476	0.84265136	0.030882984	0.016316653	0.40577102	0.42430733	-0.13418274	0.86173096	0.50580033	0.13534507	0.41873824	0.41021871	-0.010799223	0.83724386	0.48745558	0.013210104	0.553791	0.80729769	-0.15156839	0.62889013	0.82756578	0.21395576	0.67101519	0.87670938	-0.11112119	0.6897364	0.9055185	0.12798079	0.5173845	0.95374693	0.021384964	0.69018303	1.3462345	-0.14644477	0.64032648	1.3575601	0.18198771	0.60284691	1.4012935	0.010463877	0.53901747	1.0093648	-0.23445681	0.46071321	1.0501018	0.25942325	0.72923971	0.81699386	-0.21539854	0.53149771	0.79444945	0.32194136
329	1.312	0.17895031	-0.0040276479	-0.012683478	1.0595596	0.041400918	0.026381301	0.10900239	0.12746402	-0.0936463	0.91100457	0.051866531	0.064780944	0.1442425	0.12649988	-0.00096615746	0.91736892	0.094352232	-0.026043125	0.043293936	0.15347354	-0.043667821	0.84287705	0.031083424	0.016578605	0.4156755	0.42295565	-0.1358957	0.86880292	0.50661526	0.13505194	0.4288862	0.4077293	-0.012515906	0.84428274	0.49010214	0.012737609	0.56099794	0.80665764	-0.15119607	0.63406104	0.82832647	0.21503018	0.67775681	0.8763866	-0.1101285	0.69586136	0.90621959	0.12884832	0.52300917	0.95414567	0.02077741	0.69732747	1.3462192	-0.14622951	0.64799263	1.3575055	0.18231604	0.60996505	1.4012274	0.010739066	0.54513938	1.009894	-0.23380996	0.4683264	1.050093	0.26002992	0.7340811	0.81614792	-0.2153835	0.53949947	0.79420239	0.32223702
330	1.316	0.18055744	-0.0026395706	-0.013621044	1.0598938	0.041075355	0.026543436	0.11431204	0.13128071	-0.094858514	0.91138233	0.05193146	0.064942388	0.14989347	0.12935305	-0.002311678	0.91778224	0.094661826	-0.025878448	0.04966339	0.15900281	-0.04460491	0.84298978	0.03121894	0.016820999	0.42578218	0.42153659	-0.13754911	0.87539205	0.50715594	0.13490951	0.43907035	0.40517472	-0.014188862	0.85115214	0.49254534	0.012418021	0.5681575	0.80596906	-0.15076376	0.63892558	0.82898092	0.21616609	0.68438644	0.87605419	-0.10904838	0.7019921	0.90697149	0.12986219	0.52891236	0.95442373	0.0206476	0.70448278	1.3461985	-0.14599771	0.6555851	1.3575122	0.18262664	0.61697461	1.4013088	0.011056961	0.55123838	1.0104424	-0.23317579	0.47601064	1.0500547	0.26057493	0.73888023	0.81531186	-0.21535961	0.54752943	0.79400188	0.32253776
331	1.32	0.18229118	-0.0010785526	-0.014611849	1.0600879	0.04085142	0.02648076	0.11992751	0.13526695	-0.095950438	0.91153179	0.051997607	0.065115229	0.15566069	0.13238332	-0.0034992935	0.91817552	0.095043449	-0.025728114	0.056336526	0.16474173	-0.045506412	0.84302294	0.031292815	0.017014741	0.43603142	0.42005145	-0.13907375	0.88150556	0.50744599	0.13493056	0.44931927	0.40268103	-0.015885191	0.85774142	0.49456551	0.012262918	0.57526336	0.80522205	-0.15026989	0.64356974	0.82954193	0.21722175	0.69089579	0.87573089	-0.10791239	0.70812403	0.90776249	0.13096402	0.53507159	0.95458428	0.020944475	0.71165333	1.34617	-0.14575699	0.6631009	1.3575951	0.18291043	0.62391179	1.4015114	0.011381156	0.55730804	1.011014	-0.23256579	0.48373757	1.0500303	0.26110513	0.7436182	0.81447298	-0.21534192	0.55558721	0.7938593	0.3228389
332	1.324	0.18417637	0.00067778885	-0.015625986	1.0602128	0.0407064	0.026239093	0.12587137	0.13940762	-0.096906481	0.91159853	0.052001707	0.065210849	0.16156291	0.13560057	-0.0045188846	0.91855497	0.095347226	-0.025675862	0.063331391	0.17067284	-0.046353629	0.84302234	0.031322102	0.017127172	0.44642212	0.41849234	-0.14046418	0.88718283	0.50752567	0.13509127	0.45973499	0.40032015	-0.017590531	0.86398161	0.49602575	0.01222358	0.58232032	0.8044263	-0.14975659	0.64814827	0.83004732	0.21811626	0.69728622	0.87543582	-0.10674851	0.71424712	0.90857469	0.13209395	0.54135637	0.95469031	0.021390315	0.71882712	1.346139	-0.14550998	0.6705502	1.3577587	0.18316344	0.63084341	1.4017865	0.011652956	0.56335007	1.0116049	-0.23198869	0.49147053	1.0500108	0.26166095	0.74828786	0.8136212	-0.21534555	0.56366461	0.7937754	0.32314459
333	1.328	0.18621734	0.0026387046	-0.016661632	1.0603248	0.040593269	0.02598452	0.13217381	0.14369669	-0.097734357	0.91173288	0.051921495	0.06515105	0.16767494	0.13899715	-0.0053786417	0.91894604	0.095469702	-0.025752353	0.070664926	0.17677304	-0.047119374	0.84302377	0.031316672	0.017134175	0.45702908	0.41686324	-0.14177832	0.89250033	0.5074444	0.13533473	0.47040453	0.39811998	-0.019208406	0.86986888	0.49692055	0.01222449	0.58933915	0.80361352	-0.14926737	0.65287581	0.83055949	0.21886545	0.70356953	0.8751837	-0.10558436	0.72035544	0.90938406	0.13320657	0.54767136	0.95479492	0.021768467	0.72597976	1.3461131	-0.14525776	0.67793868	1.3579956	0.18338797	0.6378216	1.4020962	0.011847353	0.56937885	1.0122043	-0.23145684	0.49917854	1.0499776	0.26225837	0.7528932	0.81275779	-0.21537748	0.57176197	0.79374362	0.32345254
334	1.332	0.18839304	0.0047950179	-0.017751515	1.0604543	0.040475933	0.025817865	0.13883826	0.1481405	-0.098456955	0.91189896	0.051840362	0.06494382	0.17409038	0.14255789	-0.0061062269	0.9193608	0.095400369	-0.025929921	0.078346177	0.18303363	-0.04778058	0.8430489	0.03128787	0.017046932	0.46790451	0.41519044	-0.14305961	0.89754097	0.50725316	0.13558868	0.48131495	0.39609467	-0.020641948	0.87545311	0.49735835	0.012212952	0.59630819	0.80282424	-0.14880991	0.65793683	0.83114996	0.2195359	0.7097543	0.87499122	-0.10445334	0.72644186	0.91017518	0.13427309	0.55396994	0.95493196	0.022039106	0.73308335	1.3461022	-0.14500092	0.68525339	1.3582981	0.1835889	0.64483321	1.4024273	0.011979116	0.57540755	1.0128039	-0.23098359	0.50687886	1.0499612	0.26289091	0.75743389	0.81189623	-0.21544115	0.57990581	0.79376488	0.32375762
335	1.336	0.19067022	0.0071396328	-0.018945714	1.060604	0.040347413	0.025729962	0.14584491	0.15275042	-0.099097346	0.91193416	0.051878466	0.064697063	0.18085131	0.14626908	-0.0067312741	0.91978971	0.095202933	-0.026147432	0.086371419	0.18946589	-0.048331902	0.84309838	0.031252107	0.016912016	0.47905083	0.41351011	-0.14430102	0.90236289	0.50699415	0.135804	0.49235087	0.39423209	-0.021826811	0.88080533	0.49748546	0.012180968	0.6031806	0.80209866	-0.14836826	0.66340247	0.83186875	0.22017928	0.71583845	0.8748811	-0.10338931	0.73249039	0.91094661	0.13527037	0.56024325	0.95512986	0.022260796	0.74011367	1.3461169	-0.14473909	0.69247216	1.3586655	0.18377126	0.65179118	1.4027975	0.012083297	0.58143293	1.0134012	-0.23056753	0.51460737	1.0500181	0.2635561	0.76191215	0.81105149	-0.21553287	0.5881554	0.79385862	0.32407239
336	1.34	0.19302521	0.0096942592	-0.020291058	1.0607501	0.040222804	0.025670036	0.1531915	0.15753989	-0.099677694	0.91174766	0.052068015	0.064536962	0.1879354	0.15012411	-0.0072749707	0.92020419	0.094961015	-0.026345307	0.094730921	0.19608528	-0.048785115	0.84315103	0.031222106	0.016786634	0.49044945	0.41185623	-0.14547515	0.90700248	0.50668997	0.13597575	0.50341568	0.3924781	-0.022726006	0.88598969	0.49741638	0.01215085	0.60989985	0.80146718	-0.14793941	0.66920482	0.83271412	0.22079834	0.72181609	0.8748774	-0.10241692	0.73847954	0.91170333	0.13617594	0.56649016	0.95541491	0.02249964	0.74705085	1.346164	-0.14447098	0.69958313	1.3591013	0.18393789	0.65859158	1.403248	0.012202065	0.58743285	1.0139945	-0.23019382	0.52235207	1.0501754	0.2642614	0.76634483	0.81023205	-0.21563375	0.59659756	0.79406519	0.32444135
337	1.344	0.1954606	0.012511843	-0.021818656	1.0608577	0.040121134	0.025613037	0.1608912	0.16252786	-0.10022598	0.91140383	0.05232286	0.064515629	0.19530833	0.1541259	-0.0077603719	0.92056854	0.094741079	-0.02648718	0.10341932	0.20289164	-0.049153172	0.84317904	0.031202575	0.016711121	0.50206117	0.41026566	-0.14656448	0.91148803	0.50634289	0.13612888	0.51455497	0.39079248	-0.023384508	0.89104709	0.49721676	0.012150594	0.61643062	0.80093989	-0.1475404	0.67518851	0.8336348	0.2213587	0.72768481	0.87499658	-0.10154983	0.74439174	0.91244836	0.13697369	0.57266921	0.95580988	0.02279646	0.75387445	1.3462503	-0.1441993	0.70658982	1.3596078	0.18408727	0.66521031	1.4037972	0.012352967	0.59338417	1.0145829	-0.22984625	0.53003299	1.0504206	0.26499464	0.77074537	0.80944172	-0.21572731	0.60531535	0.79442963	0.32492318
338	1.348	0.19801025	0.015657218	-0.023536906	1.0609057	0.040050151	0.025572079	0.16891557	0.16772572	-0.10076888	0.91104428	0.052529143	0.064592629	0.20295621	0.15828177	-0.0082200381	0.9208643	0.094583026	-0.026562311	0.11243907	0.20986456	-0.049438477	0.84316698	0.031194877	0.016694297	0.51383016	0.40878094	-0.14755795	0.91584212	0.505951	0.13629646	0.52594688	0.38922466	-0.023969816	0.89598836	0.49692039	0.012199207	0.62277369	0.80050519	-0.14717899	0.68122556	0.83457035	0.22183612	0.73344884	0.87524397	-0.10079381	0.75021763	0.91317893	0.13765934	0.57866298	0.95633411	0.023170305	0.76056043	1.346386	-0.1439337	0.71349789	1.3601874	0.18421638	0.67171152	1.4044164	0.012509951	0.59928323	1.0151744	-0.22950712	0.53753381	1.0507224	0.26571046	0.77510276	0.80868388	-0.21582045	0.61430243	0.79496372	0.32552746
